<svg width="38" height="38" viewBox="0 0 38 38" fill="none" xmlns="http://www.w3.org/2000/svg">
<rect width="38" height="38" rx="5" fill="#218AD7"/>
<path d="M8.86621 29.5L9.33371 25.9725C10.5237 26.0575 11.4162 25.8308 12.0112 25.2925C12.6062 24.7542 12.9887 24.0175 13.1587 23.0825C13.3287 22.1475 13.357 21.1133 13.2437 19.98H8.86621V10.375H17.1962V21.255C17.1962 24.23 16.4595 26.4683 14.9862 27.97C13.5412 29.4717 11.5012 29.9817 8.86621 29.5ZM20.8087 29.5L21.2762 25.9725C22.4662 26.0575 23.3587 25.8308 23.9537 25.2925C24.5487 24.7542 24.9312 24.0175 25.1012 23.0825C25.2712 22.1475 25.2995 21.1133 25.1862 19.98H20.8087V10.375H29.1387V21.255C29.1387 24.23 28.402 26.4683 26.9287 27.97C25.4837 29.4717 23.4437 29.9817 20.8087 29.5Z" fill="#F5F5F5"/>
</svg>
