<svg width="312" height="314" viewBox="0 0 312 314" fill="none" xmlns="http://www.w3.org/2000/svg">
<path d="M101.129 61.2425C88.0262 68.8073 76.6082 78.971 67.5765 91.1092C58.5447 103.247 52.0897 117.104 48.608 131.828C45.1263 146.551 44.6914 161.831 47.3299 176.729C49.9685 191.627 55.6248 205.828 63.9515 218.46L103.339 192.498C98.5515 185.234 95.2991 177.068 93.782 168.502C92.2648 159.936 92.5149 151.15 94.5169 142.684C96.5189 134.217 100.23 126.25 105.424 119.271C110.617 112.291 117.182 106.447 124.716 102.097L101.129 61.2425Z" fill="#EE5E67" stroke="white" stroke-width="7"/>
<path d="M63.9511 218.46C72.9811 232.159 84.9357 243.686 98.9547 252.211C112.974 260.736 128.708 266.048 145.026 267.763C161.343 269.478 177.838 267.554 193.323 262.13C208.808 256.706 222.898 247.916 234.579 236.394L201.45 202.809C194.734 209.434 186.632 214.488 177.728 217.607C168.824 220.726 159.34 221.832 149.957 220.846C140.574 219.86 131.527 216.806 123.466 211.904C115.405 207.002 108.531 200.374 103.339 192.497L63.9511 218.46Z" fill="#A7A7A7" stroke="white" stroke-width="7"/>
<path d="M234.579 236.395C253.797 217.437 265.448 192.126 267.352 165.199C269.255 138.271 261.281 111.573 244.921 90.1003C228.561 68.6279 204.936 53.8534 178.469 48.5417C152.002 43.2301 124.507 47.7456 101.128 61.2429L124.716 102.098C138.158 94.3366 153.968 91.7403 169.187 94.7944C184.405 97.8486 197.989 106.344 207.396 118.691C216.803 131.037 221.389 146.389 220.294 161.872C219.2 177.355 212.5 191.909 201.45 202.81L234.579 236.395Z" fill="#E8AF41" stroke="white" stroke-width="7"/>
</svg>
