<svg width="230" height="230" viewBox="0 0 230 230" fill="none" xmlns="http://www.w3.org/2000/svg">
<path d="M226 115C226 99.8702 222.907 84.9001 216.911 71.0093C210.914 57.1184 202.142 44.6001 191.132 34.223C180.121 23.8459 167.106 15.8292 152.885 10.6653C138.664 5.50146 123.537 3.29939 108.434 4.19439L111.224 51.2867C119.909 50.7721 128.606 52.0383 136.784 55.0075C144.961 57.9767 152.445 62.5863 158.776 68.5532C165.106 74.52 170.151 81.7181 173.598 89.7053C177.046 97.6925 178.825 106.3 178.825 115H226Z" fill="#9441E8" stroke="white" stroke-width="7"/>
<path d="M7.58789 142.996C14.3964 169.118 30.4909 191.864 52.8591 206.976C75.2273 222.088 102.336 228.531 129.112 225.099C155.887 221.667 180.495 208.595 198.328 188.33C216.162 168.064 225.999 141.995 225.999 115H178.824C178.824 130.522 173.168 145.512 162.913 157.165C152.659 168.817 138.51 176.333 123.114 178.307C107.718 180.28 92.1304 176.576 79.2686 167.886C66.4069 159.197 57.1526 146.118 53.2377 131.098L7.58789 142.996Z" fill="#64ADE2" stroke="white" stroke-width="7"/>
<path d="M108.434 4.19434C92.0549 5.16492 76.0949 9.75448 61.7025 17.6327C47.3101 25.5109 34.8432 36.4818 25.1991 49.7557C15.555 63.0297 8.97352 78.2766 5.92841 94.3991C2.8833 110.522 3.45029 127.119 7.58854 142.996L53.2384 131.098C50.8589 121.968 50.5328 112.425 52.2838 103.154C54.0347 93.884 57.819 85.117 63.3644 77.4845C68.9098 69.8519 76.0782 63.5437 84.3539 59.0137C92.6295 54.4837 101.806 51.8447 111.224 51.2867L108.434 4.19434Z" fill="#9DC028" stroke="white" stroke-width="7"/>
</svg>
