<svg width="11" height="15" viewBox="0 0 11 15" fill="none" xmlns="http://www.w3.org/2000/svg">
<path d="M6.125 4.46875C6.125 4.65104 6.1888 4.80599 6.31641 4.93359C6.44401 5.0612 6.59896 5.125 6.78125 5.125H10.5V14.0938C10.5 14.276 10.4362 14.431 10.3086 14.5586C10.181 14.6862 10.026 14.75 9.84375 14.75H0.65625C0.473958 14.75 0.31901 14.6862 0.191406 14.5586C0.0638021 14.431 0 14.276 0 14.0938V1.40625C0 1.22396 0.0638021 1.06901 0.191406 0.941406C0.31901 0.813802 0.473958 0.75 0.65625 0.75H6.125V4.46875ZM8.20312 10.2383C8.34896 10.1107 8.38542 9.95573 8.3125 9.77344C8.23958 9.59115 8.10286 9.5 7.90234 9.5H6.125V7.3125C6.125 7.1849 6.07943 7.08464 5.98828 7.01172C5.91536 6.92057 5.8151 6.875 5.6875 6.875H4.8125C4.6849 6.875 4.57552 6.92057 4.48438 7.01172C4.41146 7.08464 4.375 7.1849 4.375 7.3125V9.5H2.59766C2.39714 9.5 2.26042 9.59115 2.1875 9.77344C2.11458 9.95573 2.15104 10.1107 2.29688 10.2383L4.92188 12.8633C5.01302 12.9544 5.1224 13 5.25 13C5.3776 13 5.48698 12.9544 5.57812 12.8633L8.20312 10.2383ZM10.3086 3.62109C10.4362 3.7487 10.5 3.90365 10.5 4.08594V4.25H7V0.75H7.16406C7.34635 0.75 7.5013 0.813802 7.62891 0.941406L10.3086 3.62109Z" fill="#223594"/>
</svg>
