<svg width="20" height="13" viewBox="0 0 20 13" fill="none" xmlns="http://www.w3.org/2000/svg">
<path d="M10.0006 10.111C12.0461 10.111 13.7043 8.49429 13.7043 6.49993C13.7043 4.50557 12.0461 2.88882 10.0006 2.88882C7.95508 2.88882 6.29688 4.50557 6.29688 6.49993C6.29688 8.49429 7.95508 10.111 10.0006 10.111Z" fill="#C4C4C4"/>
<path fill-rule="evenodd" clip-rule="evenodd" d="M20 6.5C20 6.31944 19.9653 6.15017 19.8958 5.99219C18.9236 4.18663 17.5579 2.74219 15.7986 1.65885C14.0394 0.552951 12.1065 0 10 0C7.89352 0 5.96065 0.552951 4.20139 1.65885C2.44213 2.74219 1.07639 4.18663 0.104167 5.99219C0.0347222 6.15017 0 6.31944 0 6.5C0 6.68056 0.0347222 6.84983 0.104167 7.00781C0.752315 8.20399 1.57407 9.25347 2.56944 10.1562C3.56482 11.0365 4.69907 11.7361 5.97222 12.2552C7.26852 12.7517 8.61111 13 10 13C12.1065 13 14.0394 12.4583 15.7986 11.375C17.5579 10.2691 18.9236 8.81337 19.8958 7.00781C19.9653 6.84983 20 6.68056 20 6.5ZM13.5417 9.95313C12.5694 10.901 11.3889 11.375 10 11.375C8.61111 11.375 7.43056 10.901 6.45833 9.95313C5.48611 9.00521 5 7.85417 5 6.5C5 5.14583 5.48611 3.99479 6.45833 3.04688C7.43056 2.09896 8.61111 1.625 10 1.625C11.3889 1.625 12.5694 2.09896 13.5417 3.04688C14.5139 3.99479 15 5.14583 15 6.5C15 7.85417 14.5139 9.00521 13.5417 9.95313Z" fill="#C4C4C4"/>
</svg>
