<svg width="14" height="19" viewBox="0 0 14 19" fill="none" xmlns="http://www.w3.org/2000/svg">
<path d="M7.10156 0.25C8.64844 0.25 10.0664 0.777344 11.3555 1.83203C12.6445 2.88672 13.2891 4.16406 13.2891 5.66406C13.2891 6.41406 13.1367 7.08203 12.832 7.66797C12.5273 8.23047 12.1523 8.67578 11.707 9.00391C11.2852 9.30859 10.8516 9.57812 10.4062 9.8125C9.98438 10.0469 9.62109 10.293 9.31641 10.5508C9.01172 10.7852 8.85938 11.0312 8.85938 11.2891V11.5C8.85938 11.7344 8.77734 11.9336 8.61328 12.0977C8.44922 12.2617 8.25 12.3438 8.01562 12.3438H5.48438C5.25 12.3438 5.05078 12.2617 4.88672 12.0977C4.72266 11.9336 4.64062 11.7344 4.64062 11.5V11.1484C4.64062 10.6328 4.71094 10.1758 4.85156 9.77734C5.01562 9.37891 5.27344 9.02734 5.625 8.72266C6 8.39453 6.29297 8.16016 6.50391 8.01953C6.73828 7.87891 7.07812 7.67969 7.52344 7.42188C8.15625 7.07031 8.60156 6.77734 8.85938 6.54297C9.11719 6.28516 9.24609 5.98047 9.24609 5.62891C9.24609 5.11328 8.98828 4.69141 8.47266 4.36328C7.95703 4.03516 7.40625 3.87109 6.82031 3.87109C6.375 3.87109 5.97656 3.95312 5.625 4.11719C5.29688 4.25781 5.01562 4.44531 4.78125 4.67969C4.54688 4.89062 4.25391 5.19531 3.90234 5.59375C3.76172 5.78125 3.57422 5.89844 3.33984 5.94531C3.12891 5.96875 2.92969 5.91016 2.74219 5.76953L1.23047 4.60938C1.04297 4.46875 0.925781 4.29297 0.878906 4.08203C0.855469 3.84766 0.914062 3.63672 1.05469 3.44922C2.53125 1.31641 4.54688 0.25 7.10156 0.25ZM5.02734 14.1016C5.49609 13.6094 6.07031 13.3633 6.75 13.3633C7.42969 13.3633 8.00391 13.6094 8.47266 14.1016C8.94141 14.5703 9.17578 15.1445 9.17578 15.8242C9.17578 16.4805 8.94141 17.043 8.47266 17.5117C8.00391 18.0039 7.42969 18.25 6.75 18.25C6.07031 18.25 5.49609 18.0039 5.02734 17.5117C4.55859 17.043 4.32422 16.4805 4.32422 15.8242C4.32422 15.1445 4.55859 14.5703 5.02734 14.1016Z" fill="#218AD7"/>
</svg>
