<svg width="30" height="26" viewBox="0 0 30 26" fill="none" xmlns="http://www.w3.org/2000/svg">
<g clip-path="url(#clip0)">
<path d="M14.9951 26C10.988 26 7.22456 24.4384 4.38739 21.5983C1.55021 18.7583 0 15.0007 0 10.9895C0 6.97823 1.55996 3.21096 4.39714 0.370869C4.89437 -0.126878 5.69385 -0.126878 6.19109 0.370869C6.68833 0.868617 6.68833 1.66892 6.19109 2.16667C3.83165 4.51877 2.53493 7.65165 2.53493 10.9895C2.53493 14.3273 3.83165 17.4602 6.19109 19.8123C8.55053 22.1742 11.6802 23.4722 15.0049 23.4722C18.3393 23.4722 21.4689 22.1742 23.8186 19.8123C26.1781 17.4504 27.4748 14.3176 27.4748 10.9895C27.4748 7.65165 26.1781 4.51877 23.8186 2.16667C23.3214 1.66892 23.3214 0.868617 23.8186 0.370869C24.3159 -0.126878 25.1154 -0.126878 25.6126 0.370869C28.4498 3.21096 30.0097 6.97823 30.0097 10.9895C30.0097 15.0007 28.4498 18.768 25.6126 21.6081C22.7754 24.4384 19.0023 26 14.9951 26Z" fill="#218AD7"/>
<path d="M14.9939 2.33253C17.3046 2.33253 19.4788 3.23043 21.107 4.87007C24.4804 8.24694 24.4804 13.7319 21.107 17.1088C19.469 18.7484 17.3046 19.6463 14.9939 19.6463C12.6832 19.6463 10.509 18.7484 8.88079 17.1088C5.50738 13.7319 5.50738 8.24694 8.88079 4.87007C10.5188 3.23043 12.6929 2.33253 14.9939 2.33253ZM14.9939 0.927124C12.42 0.927124 9.84602 1.91286 7.88632 3.87457C3.95717 7.80775 3.95717 14.1809 7.88632 18.1043C9.84602 20.066 12.42 21.0517 14.9939 21.0517C17.5678 21.0517 20.1418 20.066 22.1015 18.1043C26.0306 14.1711 26.0306 7.798 22.1015 3.87457C20.1418 1.9031 17.5678 0.927124 14.9939 0.927124Z" fill="#218AD7"/>
<path d="M14.9954 6.27552C16.2531 6.27552 17.4329 6.76351 18.3201 7.65165C20.153 9.48649 20.153 12.473 18.3201 14.3078C17.4329 15.1959 16.2531 15.6839 14.9954 15.6839C13.7377 15.6839 12.558 15.1959 11.6708 14.3078C9.8378 12.473 9.8378 9.48649 11.6708 7.65165C12.558 6.77327 13.7475 6.27552 14.9954 6.27552ZM14.9954 4.87012C13.4355 4.87012 11.8658 5.46546 10.6763 6.66591C8.28759 9.05706 8.28759 12.9317 10.6763 15.3131C11.8658 16.5038 13.4355 17.1089 14.9954 17.1089C16.5554 17.1089 18.1251 16.5135 19.3146 15.3131C21.7033 12.9219 21.7033 9.0473 19.3146 6.66591C18.1251 5.46546 16.5651 4.87012 14.9954 4.87012Z" fill="#218AD7"/>
</g>
<defs>
<clipPath id="clip0">
<rect width="30" height="26" fill="white"/>
</clipPath>
</defs>
</svg>
