<svg width="85" height="35" viewBox="0 0 85 35" fill="none" xmlns="http://www.w3.org/2000/svg">
<path d="M6.39844 22.3203V35H0.46875V0.875H13.5234C17.3359 0.875 20.3594 1.86719 22.5938 3.85156C24.8438 5.83594 25.9688 8.46094 25.9688 11.7266C25.9688 15.0703 24.8672 17.6719 22.6641 19.5312C20.4766 21.3906 17.4062 22.3203 13.4531 22.3203H6.39844ZM6.39844 17.5625H13.5234C15.6328 17.5625 17.2422 17.0703 18.3516 16.0859C19.4609 15.0859 20.0156 13.6484 20.0156 11.7734C20.0156 9.92969 19.4531 8.46094 18.3281 7.36719C17.2031 6.25781 15.6562 5.6875 13.6875 5.65625H6.39844V17.5625ZM31.1719 35V0.875H41.25C44.2656 0.875 46.9375 1.54688 49.2656 2.89062C51.6094 4.23437 53.4219 6.14063 54.7031 8.60938C55.9844 11.0781 56.625 13.9062 56.625 17.0938V18.8047C56.625 22.0391 55.9766 24.8828 54.6797 27.3359C53.3984 29.7891 51.5625 31.6797 49.1719 33.0078C46.7969 34.3359 44.0703 35 40.9922 35H31.1719ZM37.1016 5.65625V30.2656H40.9688C44.0781 30.2656 46.4609 29.2969 48.1172 27.3594C49.7891 25.4062 50.6406 22.6094 50.6719 18.9688V17.0703C50.6719 13.3672 49.8672 10.5391 48.2578 8.58594C46.6484 6.63281 44.3125 5.65625 41.25 5.65625H37.1016ZM82.1953 20.5391H68.4609V35H62.5312V0.875H84.2109V5.65625H68.4609V15.8047H82.1953V20.5391Z" fill="white"/>
</svg>
