<svg width="14" height="15" viewBox="0 0 14 15" fill="none" xmlns="http://www.w3.org/2000/svg">
<path d="M13.5898 10.6484C13.8633 10.7578 14 10.9583 14 11.25C14 11.3047 13.9909 11.3503 13.9727 11.3867L13.3164 14.2305C13.2982 14.3216 13.2526 14.4036 13.1797 14.4766C13.125 14.5677 13.0521 14.6315 12.9609 14.668C12.8698 14.7227 12.7786 14.75 12.6875 14.75C9.1875 14.75 6.19792 13.5104 3.71875 11.0312C1.23958 8.55208 0 5.5625 0 2.0625C0 1.97135 0.0182292 1.88021 0.0546875 1.78906C0.109375 1.69792 0.173177 1.625 0.246094 1.57031C0.33724 1.4974 0.428385 1.45182 0.519531 1.43359L3.36328 0.777344C3.39974 0.759115 3.44531 0.75 3.5 0.75C3.79167 0.75 3.99219 0.886719 4.10156 1.16016L5.41406 4.22266C5.45052 4.29557 5.46875 4.3776 5.46875 4.46875C5.46875 4.66927 5.38672 4.84245 5.22266 4.98828L3.58203 6.32812C4.0013 7.23958 4.6849 8.16927 5.63281 9.11719C6.58073 10.0651 7.51042 10.7487 8.42188 11.168L9.76172 9.52734C9.90755 9.36328 10.0807 9.28125 10.2812 9.28125C10.3724 9.28125 10.4544 9.29948 10.5273 9.33594L13.5898 10.6484Z" fill="#131B40"/>
</svg>
