<svg width="13" height="16" viewBox="0 0 13 16" fill="none" xmlns="http://www.w3.org/2000/svg">
<path opacity="0.3" d="M11.8264 0H1.17361C0.511574 0 0 0.491863 0 1.12839V14.8716C0 15.4792 0.511574 16 1.17361 16H11.8264C12.4583 16 13 15.5081 13 14.8716V1.12839C13 0.491863 12.4583 0 11.8264 0ZM1.77546 4.31103C1.77546 4.25316 1.83565 4.1953 1.89583 4.1953H7.3125C7.37268 4.1953 7.43287 4.25316 7.43287 4.31103V4.94756C7.43287 5.00542 7.37268 5.06329 7.3125 5.06329H1.89583C1.83565 5.06329 1.77546 5.00542 1.77546 4.94756V4.31103ZM7.43287 10.6184C7.43287 10.6763 7.37268 10.7342 7.3125 10.7342H1.89583C1.83565 10.7342 1.77546 10.6763 1.77546 10.6184V9.98192C1.77546 9.92405 1.83565 9.86618 1.89583 9.86618H7.3125C7.37268 9.86618 7.43287 9.92405 7.43287 9.98192V10.6184ZM11.1944 8.07233C11.1944 8.1302 11.1343 8.18807 11.0741 8.18807H1.89583C1.83565 8.18807 1.77546 8.1302 1.77546 8.07233V7.43581C1.77546 7.37794 1.83565 7.32007 1.89583 7.32007H11.0741C11.1343 7.32007 11.1944 7.37794 11.1944 7.43581V8.07233ZM11.1944 2.40145C11.1944 2.45931 11.1343 2.51718 11.0741 2.51718H1.89583C1.83565 2.51718 1.77546 2.45931 1.77546 2.40145V1.76492C1.77546 1.70705 1.83565 1.64919 1.89583 1.64919H11.0741C11.1343 1.64919 11.1944 1.70705 11.1944 1.76492V2.40145Z" fill="#F5F5F5"/>
</svg>
