<svg width="24" height="24" viewBox="0 0 24 24" fill="none" xmlns="http://www.w3.org/2000/svg">
<path fill-rule="evenodd" clip-rule="evenodd" d="M16.6856 19.6856C15.3208 20.5195 13.7165 21 12 21C7.0294 21 3 16.9706 3 12C3 7.0294 7.0294 3 12 3C16.9706 3 21 7.0294 21 12C21 14.2307 20.1884 16.2719 18.8444 17.8444L16 15L14 17L16.6856 19.6856ZM18.8524 21.8524C16.9096 23.2062 14.5475 24 12 24C5.3726 24 0 18.6274 0 12C0 5.3726 5.3726 0 12 0C18.6274 0 24 5.3726 24 12C24 15.0593 22.8552 17.8511 20.9706 19.9706L23 22L21 24L18.8524 21.8524Z" fill="#131B40"/>
</svg>
