<svg width="92" height="16" viewBox="0 0 92 16" fill="none" xmlns="http://www.w3.org/2000/svg">
<path d="M14.877 5.03906C15.2676 5.07812 15.5215 5.2832 15.6387 5.6543C15.7559 6.02539 15.6777 6.34766 15.4043 6.62109L12.2988 9.63867L13.0312 13.916C13.0898 14.2871 12.9629 14.5801 12.6504 14.7949C12.3379 15.0293 12.0156 15.0586 11.6836 14.8828L7.8457 12.8906L4.00781 14.8828C3.67578 15.0781 3.35352 15.0586 3.04102 14.8242C2.72852 14.5898 2.60156 14.2871 2.66016 13.916L3.39258 9.63867L0.287109 6.62109C0.0136719 6.34766 -0.0644531 6.02539 0.0527344 5.6543C0.169922 5.2832 0.423828 5.07812 0.814453 5.03906L5.0918 4.39453L6.99609 0.527344C7.17188 0.175781 7.45508 0 7.8457 0C8.23633 0 8.51953 0.175781 8.69531 0.527344L10.5996 4.39453L14.877 5.03906ZM10.8047 9.14062L13.7344 6.26953L9.66211 5.68359L7.8457 1.99219L6.0293 5.68359L1.95703 6.26953L4.88672 9.14062L4.21289 13.2129L7.8457 11.2793L11.4785 13.2129L10.8047 9.14062Z" fill="#A7A7A7"/>
<path d="M33.877 5.03906C34.2676 5.07812 34.5215 5.2832 34.6387 5.6543C34.7559 6.02539 34.6777 6.34766 34.4043 6.62109L31.2988 9.63867L32.0312 13.916C32.0898 14.2871 31.9629 14.5801 31.6504 14.7949C31.3379 15.0293 31.0156 15.0586 30.6836 14.8828L26.8457 12.8906L23.0078 14.8828C22.6758 15.0781 22.3535 15.0586 22.041 14.8242C21.7285 14.5898 21.6016 14.2871 21.6602 13.916L22.3926 9.63867L19.2871 6.62109C19.0137 6.34766 18.9355 6.02539 19.0527 5.6543C19.1699 5.2832 19.4238 5.07812 19.8145 5.03906L24.0918 4.39453L25.9961 0.527344C26.1719 0.175781 26.4551 0 26.8457 0C27.2363 0 27.5195 0.175781 27.6953 0.527344L29.5996 4.39453L33.877 5.03906ZM29.8047 9.14062L32.7344 6.26953L28.6621 5.68359L26.8457 1.99219L25.0293 5.68359L20.957 6.26953L23.8867 9.14062L23.2129 13.2129L26.8457 11.2793L30.4785 13.2129L29.8047 9.14062Z" fill="#A7A7A7"/>
<path d="M52.877 5.03906C53.2676 5.07812 53.5215 5.2832 53.6387 5.6543C53.7559 6.02539 53.6777 6.34766 53.4043 6.62109L50.2988 9.63867L51.0312 13.916C51.0898 14.2871 50.9629 14.5801 50.6504 14.7949C50.3379 15.0293 50.0156 15.0586 49.6836 14.8828L45.8457 12.8906L42.0078 14.8828C41.6758 15.0781 41.3535 15.0586 41.041 14.8242C40.7285 14.5898 40.6016 14.2871 40.6602 13.916L41.3926 9.63867L38.2871 6.62109C38.0137 6.34766 37.9355 6.02539 38.0527 5.6543C38.1699 5.2832 38.4238 5.07812 38.8145 5.03906L43.0918 4.39453L44.9961 0.527344C45.1719 0.175781 45.4551 0 45.8457 0C46.2363 0 46.5195 0.175781 46.6953 0.527344L48.5996 4.39453L52.877 5.03906ZM48.8047 9.14062L51.7344 6.26953L47.6621 5.68359L45.8457 1.99219L44.0293 5.68359L39.957 6.26953L42.8867 9.14062L42.2129 13.2129L45.8457 11.2793L49.4785 13.2129L48.8047 9.14062Z" fill="#A7A7A7"/>
<path d="M71.877 5.03906C72.2676 5.07812 72.5215 5.2832 72.6387 5.6543C72.7559 6.02539 72.6777 6.34766 72.4043 6.62109L69.2988 9.63867L70.0312 13.916C70.0898 14.2871 69.9629 14.5801 69.6504 14.7949C69.3379 15.0293 69.0156 15.0586 68.6836 14.8828L64.8457 12.8906L61.0078 14.8828C60.6758 15.0781 60.3535 15.0586 60.041 14.8242C59.7285 14.5898 59.6016 14.2871 59.6602 13.916L60.3926 9.63867L57.2871 6.62109C57.0137 6.34766 56.9355 6.02539 57.0527 5.6543C57.1699 5.2832 57.4238 5.07812 57.8145 5.03906L62.0918 4.39453L63.9961 0.527344C64.1719 0.175781 64.4551 0 64.8457 0C65.2363 0 65.5195 0.175781 65.6953 0.527344L67.5996 4.39453L71.877 5.03906ZM67.8047 9.14062L70.7344 6.26953L66.6621 5.68359L64.8457 1.99219L63.0293 5.68359L58.957 6.26953L61.8867 9.14062L61.2129 13.2129L64.8457 11.2793L68.4785 13.2129L67.8047 9.14062Z" fill="#A7A7A7"/>
<path d="M90.877 5.03906C91.2676 5.07812 91.5215 5.2832 91.6387 5.6543C91.7559 6.02539 91.6777 6.34766 91.4043 6.62109L88.2988 9.63867L89.0312 13.916C89.0898 14.2871 88.9629 14.5801 88.6504 14.7949C88.3379 15.0293 88.0156 15.0586 87.6836 14.8828L83.8457 12.8906L80.0078 14.8828C79.6758 15.0781 79.3535 15.0586 79.041 14.8242C78.7285 14.5898 78.6016 14.2871 78.6602 13.916L79.3926 9.63867L76.2871 6.62109C76.0137 6.34766 75.9355 6.02539 76.0527 5.6543C76.1699 5.2832 76.4238 5.07812 76.8145 5.03906L81.0918 4.39453L82.9961 0.527344C83.1719 0.175781 83.4551 0 83.8457 0C84.2363 0 84.5195 0.175781 84.6953 0.527344L86.5996 4.39453L90.877 5.03906ZM86.8047 9.14062L89.7344 6.26953L85.6621 5.68359L83.8457 1.99219L82.0293 5.68359L77.957 6.26953L80.8867 9.14062L80.2129 13.2129L83.8457 11.2793L87.4785 13.2129L86.8047 9.14062Z" fill="#A7A7A7"/>
</svg>
