<svg width="18" height="18" viewBox="0 0 18 18" fill="none" xmlns="http://www.w3.org/2000/svg">
<path d="M8.02539 0.632139C8.22703 0.210713 8.5519 0 9 0C9.4481 0 9.77296 0.210713 9.97461 0.632139L12.1591 5.26783L17.0657 6.04044C17.5138 6.08727 17.8051 6.3331 17.9395 6.77794C18.0739 7.22277 17.9843 7.60908 17.6707 7.93686L14.1083 11.5541L14.9485 16.6814C15.0157 17.1263 14.8701 17.4775 14.5116 17.735C14.1531 18.016 13.7834 18.0511 13.4025 17.8404L9 15.4523L4.59746 17.8404C4.21658 18.0745 3.8469 18.0511 3.48842 17.7701C3.12995 17.4892 2.98432 17.1263 3.05153 16.6814L3.89171 11.5541L0.32935 7.93686C0.0156833 7.60908 -0.0739358 7.22277 0.0604929 6.77794C0.194922 6.3331 0.486184 6.08727 0.934279 6.04044L5.84093 5.26783L8.02539 0.632139Z" fill="#C4C4C4"/>
</svg>
